<?xml version="1.0" encoding="UTF-8" standalone="no"?>
<svg
   xmlns:dc="http://purl.org/dc/elements/1.1/"
   xmlns:cc="http://creativecommons.org/ns#"
   xmlns:rdf="http://www.w3.org/1999/02/22-rdf-syntax-ns#"
   xmlns:svg="http://www.w3.org/2000/svg"
   xmlns="http://www.w3.org/2000/svg"
   xmlns:sodipodi="http://sodipodi.sourceforge.net/DTD/sodipodi-0.dtd"
   xmlns:inkscape="http://www.inkscape.org/namespaces/inkscape"
   width="190mm"
   height="190mm"
   viewBox="0 0 190 190"
   version="1.1"
   id="svg864"
   inkscape:version="1.0.1 (c497b03c, 2020-09-10)"
   sodipodi:docname="cobra.svg"
   inkscape:export-filename="/Users/lbs/Downloads/cobra-resistance-favicon.png"
   inkscape:export-xdpi="4.277895"
   inkscape:export-ydpi="4.277895">
  <defs
     id="defs858" />
  <sodipodi:namedview
     id="base"
     pagecolor="#ffffff"
     bordercolor="#666666"
     borderopacity="1.0"
     inkscape:pageopacity="0.0"
     inkscape:pageshadow="2"
     inkscape:zoom="0.88"
     inkscape:cx="400"
     inkscape:cy="331.42857"
     inkscape:document-units="mm"
     inkscape:current-layer="layer6"
     inkscape:document-rotation="0"
     showgrid="false"
     inkscape:window-width="1844"
     inkscape:window-height="1035"
     inkscape:window-x="0"
     inkscape:window-y="23"
     inkscape:window-maximized="0" />
  <metadata
     id="metadata861">
    <rdf:RDF>
      <cc:Work
         rdf:about="">
        <dc:format>image/svg+xml</dc:format>
        <dc:type
           rdf:resource="http://purl.org/dc/dcmitype/StillImage" />
        <dc:title></dc:title>
      </cc:Work>
    </rdf:RDF>
  </metadata>
  <g
     inkscape:label="Blacks"
     inkscape:groupmode="layer"
     id="layer1"
     style="display:inline">
    <path
       style="fill:#000000;stroke-width:0.264583"
       d="m 92.749043,182.0857 c -0.209311,-0.34005 -1.709295,-3.16338 -3.333303,-6.27407 -1.623995,-3.11069 -3.813741,-6.97993 -4.866094,-8.59831 -2.190767,-3.36911 -6.137028,-8.39905 -8.813246,-11.23346 l -1.831406,-1.93966 -3.307298,-0.66156 C 53.690669,149.99671 43.323979,140.53948 41.870645,127.1718 l -0.178679,-1.64355 -4.134171,-3.16385 C 30.896935,117.26687 28.414998,115.1136 23.362264,110.04865 15.391002,102.05812 11.08675,95.681727 8.347085,87.80493 6.7247605,83.140579 6.4671438,81.505129 6.4507727,75.76638 6.4344327,70.03705 6.6647543,68.57237 8.343877,63.727838 12.482594,51.786999 22.442112,40.865237 38.979897,30.131918 45.747328,25.739739 46.50937,25.195879 47.47,24.072619 52.138425,18.613898 61.46113,13.249859 70.989379,10.540189 80.581763,7.8122783 90.104835,6.8699183 101.95091,7.4763483 c 14.92657,0.7641403 27.44366,3.9769207 39.15845,10.0508697 8.22107,4.2625 13.77649,8.339821 20.38317,14.959891 5.39698,5.407911 8.3375,8.9463 11.88993,14.307399 6.97676,10.528871 10.26648,19.8169 10.26153,28.971872 -0.003,5.935819 -1.25416,11.128438 -3.99263,16.573118 -2.64624,5.261329 -5.89156,9.618662 -11.27894,15.143682 -5.96258,6.11494 -10.3914,9.82676 -26.07244,21.85148 -17.27777,13.24914 -21.27257,16.59713 -28.7132,24.06417 -9.3832,9.41651 -15.630478,17.99497 -19.066192,26.18075 -0.680112,1.6204 -1.271304,2.98628 -1.313764,3.03528 -0.0425,0.049 -0.248461,-0.18911 -0.457781,-0.52916 z m 0.602881,-4.94508 c 0,-0.2697 0.0737,-1.19578 0.163851,-2.05796 l 0.16385,-1.56759 -1.420624,-0.29452 c -0.781342,-0.16199 -1.471674,-0.2465 -1.534064,-0.18781 -0.16846,0.15847 2.159796,4.59823 2.411347,4.59823 0.11861,0 0.21564,-0.22066 0.21564,-0.49035 z m 1.431714,-9.10079 c 0.379332,-1.63711 0.688632,-3.06586 0.687332,-3.175 -10e-4,-0.10914 -0.329791,-0.20194 -0.729972,-0.20621 -0.400191,-0.004 -2.271136,-0.2963 -4.157661,-0.64895 -1.886529,-0.35266 -3.484574,-0.58666 -3.551224,-0.52002 -0.268711,0.26871 0.568591,3.71302 1.210923,4.98124 1.337284,2.64032 1.201014,2.5455 3.658244,2.5455 h 2.192667 z m 1.358959,-6.4366 c 0.481222,-0.12927 1.509284,-2.25968 3.779837,-7.83287 0.0485,-0.11906 -0.784932,-0.21695 -1.852081,-0.21754 -2.264167,-0.001 -6.144292,-0.58311 -8.920864,-1.33778 -1.074413,-0.29202 -2.020956,-0.46347 -2.103446,-0.38099 -0.0825,0.0825 -0.200211,2.27894 -0.261631,4.88102 l -0.11166,4.73105 0.627602,0.1189 c 0.928362,0.17587 8.212607,0.20735 8.842243,0.0382 z m -12.352753,-3.6384 c -0.311361,-3.13887 -0.122311,-7.90113 0.469381,-11.82396 l 0.140391,-0.93073 -2.404228,-0.32744 c -7.07484,-0.96353 -13.327107,-4.2138 -19.413594,-10.09225 -4.258433,-4.11288 -6.977799,-7.63451 -10.002627,-12.95361 l -1.410635,-2.48059 -0.328622,1.28816 c -0.18073,0.70849 -0.4038,1.88997 -0.495701,2.62552 l -0.16709,1.33735 4.058711,3.72467 c 5.817448,5.33866 16.166674,15.93669 20.304457,20.79258 l 3.545721,4.16108 2.010545,0.63637 2.010545,0.63637 -1.411114,0.0269 c -0.776112,0.0148 -1.371424,0.13407 -1.322923,0.265 0.149461,0.40342 4.581043,6.58453 4.666234,6.50839 0.0441,-0.0394 -0.0682,-1.56661 -0.249451,-3.39384 z m -20.207867,-8.849 c -3.872531,-2.2395 -5.018025,-3.08608 -7.759782,-5.73487 -4.086801,-3.94823 -5.756606,-6.51736 -7.094359,-10.91527 -0.627184,-2.06189 -0.709993,-2.78023 -0.725762,-6.29618 -0.015,-3.34719 0.0793,-4.34168 0.602172,-6.35 0.778052,-2.98841 1.923905,-5.98427 2.247594,-5.87637 0.135432,0.0451 1.077143,1.68345 2.092707,3.64068 6.625669,12.76932 15.008434,20.82968 25.587541,24.60345 3.173038,1.13188 4.755834,1.40866 2.384387,0.41695 -8.255462,-3.45234 -15.422653,-10.38403 -19.827605,-19.17612 -1.630285,-3.25397 -3.431869,-7.60179 -4.290943,-10.35546 -0.523301,-1.67738 -0.615461,-2.5165 -0.595731,-5.42396 0.0195,-2.88064 0.119959,-3.69756 0.617952,-5.02708 0.32703,-0.87313 0.64986,-1.7661 0.717383,-1.98438 0.10574,-0.3418 -0.347232,-0.38378 -3.264291,-0.30252 -2.155966,0.0601 -3.45691,0.20432 -3.579219,0.39688 -0.105691,0.16638 -1.139945,2.68377 -2.298336,5.59418 -3.452262,8.67362 -4.395223,12.68605 -4.352572,18.52084 0.02109,2.8904 0.151839,4.16917 0.595002,5.82083 1.136693,4.23651 3.218017,7.77212 6.416986,10.90075 2.311227,2.2604 3.66989,3.31454 6.438349,4.99531 2.005236,1.2174 7.947543,4.07998 8.469464,4.07998 0.143369,0 -0.928053,-0.68744 -2.380937,-1.52764 z m 36.512973,0.52964 2.1128,-0.45722 1.03274,-1.85208 c 0.568,-1.01864 1.37341,-2.42553 1.78982,-3.12643 0.41639,-0.70089 0.75707,-1.3855 0.75707,-1.52135 0,-0.13907 -1.37219,-0.247 -3.14035,-0.247 -3.610909,0 -6.772863,-0.48564 -10.348868,-1.58947 -1.379934,-0.42596 -2.590772,-0.68907 -2.690752,-0.58469 -0.316841,0.33082 -0.976623,3.22683 -0.764952,3.35766 0.342231,0.2115 5.106028,0.93048 6.229271,0.94015 0.849998,0.007 0.966878,0.0624 0.593742,0.27967 -0.255531,0.14881 -2.035676,0.35355 -3.955891,0.45497 l -3.491304,0.18442 -0.386321,2.0519 c -0.212471,1.12854 -0.297771,2.14058 -0.18955,2.24896 0.685921,0.68694 9.067484,0.59305 12.452545,-0.13949 z m -32.810073,-2.19596 c -3.91698,-3.95732 -14.973882,-13.72908 -15.543254,-13.73667 -0.316101,-0.004 1.070253,2.60343 2.325977,4.37501 1.540575,2.17347 5.355716,5.74877 8.100881,7.59163 1.932618,1.29739 6.976212,4.14958 7.365363,4.16516 0.0697,0.003 -0.942314,-1.07501 -2.248967,-2.39513 z m 18.408832,-8.76104 c 0.415291,-1.93772 1.413344,-6.16944 2.217906,-9.40383 1.823565,-7.33093 2.502371,-11.03272 2.705962,-14.75679 0.431541,-7.89373 -2.14753,-14.736623 -6.884563,-18.266463 -2.787519,-2.07714 -6.851729,-3.813799 -8.947025,-3.823109 -0.429442,-0.002 -1.553104,0.58003 -2.865218,1.483879 -2.58997,1.78408 -7.497662,4.35096 -9.559487,4.9999 -1.424274,0.44827 -1.525446,0.541 -2.309797,2.116993 -2.342236,4.70626 -2.187048,8.91217 0.577181,15.64367 2.434889,5.92945 4.199532,9.10525 7.180931,12.92335 1.976965,2.53179 6.680277,6.96354 9.249127,8.71511 2.487955,1.6964 7.49222,4.25221 7.787061,3.97706 0.0511,-0.0477 0.432631,-1.67205 0.847922,-3.60977 z m 18.163601,-0.32277 c 1.04851,-0.23339 2.69927,-0.69177 3.66834,-1.0186 l 1.76195,-0.59425 1.82177,-3.12417 c 1.8978,-3.25453 2.10979,-3.78984 1.39171,-3.51429 -1.15005,0.44131 -5.15079,0.92647 -8.96267,1.08688 -3.792877,0.15961 -7.900559,-0.0557 -10.595277,-0.5553 l -0.805662,-0.14938 -0.983233,3.525 c -0.540771,1.93875 -0.981902,3.66581 -0.980272,3.83791 0.002,0.17209 0.23719,0.38724 0.523491,0.47811 2.286046,0.72556 9.953003,0.74193 13.159853,0.0281 z m -1.64181,-10.60661 c 4.46476,-0.80558 10.59613,-3.1613 14.18497,-5.44997 1.05134,-0.67045 1.37484,-1.11072 2.3357,-3.17879 0.61345,-1.32029 1.06981,-2.44608 1.01414,-2.50175 -0.0557,-0.0557 -1.34486,0.25723 -2.86487,0.69532 -4.66049,1.3432 -7.02117,1.65582 -12.68557,1.67992 -2.83766,0.0121 -6.080537,-0.0812 -7.20641,-0.20725 -1.64873,-0.1846 -2.068911,-0.15886 -2.159491,0.13229 -0.151831,0.48806 -1.778665,7.83825 -1.947916,8.80089 l -0.13477,0.76649 3.541485,-0.15374 c 1.947815,-0.0846 4.613042,-0.3471 5.922732,-0.58341 z M 42.443017,116.84295 c 0.640783,-2.8104 2.045907,-7.05175 3.862671,-11.65947 1.165743,-2.95658 2.077937,-5.409343 2.027095,-5.450563 -0.0508,-0.0412 -0.827952,-0.46192 -1.726903,-0.93488 -3.479011,-1.83038 -6.544609,-5.02066 -8.438803,-8.782008 -1.675156,-3.326411 -3.257031,-9.691849 -3.835451,-15.43376 -0.347261,-3.447251 -0.191943,-10.079551 0.281319,-12.012139 0.23463,-0.95818 0.187622,-1.540401 -0.272781,-3.37816 -0.410949,-1.640382 -0.563331,-3.117781 -0.58327,-5.65531 -0.01479,-1.889181 -0.0989,-3.434861 -0.18677,-3.434861 -0.0879,0 -1.547356,1.190591 -3.24329,2.64576 -18.027041,15.46779 -18.474972,32.259161 -1.390434,52.122991 3.295049,3.83109 12.457936,12.67901 13.147317,12.69541 0.106371,0.003 0.26805,-0.32283 0.3593,-0.72301 z m 60.161403,-0.9987 c 7.1364,-1.01422 13.18727,-3.49947 18.84867,-7.74165 1.95541,-1.46522 2.36583,-1.90742 2.71122,-2.92107 0.22385,-0.65695 0.36855,-1.23291 0.32156,-1.2799 -0.047,-0.047 -1.27678,0.31577 -2.73288,0.80613 -7.13561,2.40303 -15.00607,3.39774 -22.277267,2.81554 -2.088962,-0.16726 -3.832032,-0.26701 -3.873492,-0.22166 -0.0415,0.0453 -0.121931,2.07675 -0.178831,4.51423 l -0.10344,4.43177 2.257141,-0.005 c 1.24142,-0.003 3.503729,-0.18201 5.027319,-0.39855 z m -3.570559,-12.16864 c 5.713299,-0.66832 12.689419,-2.67944 17.204589,-4.959853 2.19117,-1.10666 5.85334,-3.4658 8.34556,-5.376119 2.41734,-1.85293 2.58697,-2.04536 2.68206,-3.042508 0.0558,-0.58547 0.0594,-1.10663 0.008,-1.15815 -0.0515,-0.0515 -1.42819,0.54805 -3.05926,1.33236 -5.27199,2.535048 -12.45683,4.586297 -18.95645,5.411977 -1.38246,0.17563 -4.86491,0.33483 -7.738799,0.3538 -2.873903,0.019 -5.225389,0.0589 -5.225539,0.0888 -1.6e-4,0.0298 0.456121,1.10142 1.013962,2.38125 0.557832,1.27984 1.171504,2.922293 1.363714,3.649893 0.398121,1.50711 0.490642,1.71979 0.748142,1.71979 0.101441,0 1.72782,-0.18053 3.614171,-0.40119 z M 56.459996,95.857437 c 0.863473,-0.15503 2.384458,-0.52049 3.379971,-0.81213 1.752883,-0.51352 1.804085,-0.55264 1.622174,-1.23948 -0.10331,-0.390079 -0.262971,-1.648999 -0.3548,-2.797609 L 60.94037,88.919849 59.867246,88.6039 c -1.542845,-0.454242 -4.225961,-1.86064 -6.116078,-3.205861 l -1.632944,-1.162169 -0.54472,0.88138 c -1.082374,1.751298 -5.454305,5.31826 -7.196031,5.871058 -0.276522,0.0878 -0.502771,0.27327 -0.502771,0.41223 0,0.45506 2.194287,2.645269 3.298499,3.292379 2.258217,1.32341 5.875457,1.77699 9.286795,1.16452 z M 97.05611,93.207688 c 7.46889,-1.36112 14.81237,-4.218539 21.19375,-8.246728 3.7617,-2.37454 8.43966,-6.342102 8.43966,-7.158011 0,-0.65497 -1.05948,-4.52479 -1.3064,-4.77171 -0.14465,-0.14465 -0.75058,0.18696 -1.51771,0.83058 -4.79315,4.021479 -13.11488,8.443291 -20.85616,11.082049 -5.267508,1.795542 -14.022422,3.52252 -17.857382,3.52252 -0.728732,0 -1.324974,0.0971 -1.324974,0.21586 0,0.118721 0.506021,0.497451 1.124483,0.841611 1.590054,0.884819 3.61198,2.420379 4.696373,3.566679 l 0.926047,0.978909 1.852085,-0.17774 c 1.018653,-0.0977 3.102249,-0.405559 4.630228,-0.684019 z m -28.69182,-0.65705 c 1.645654,-0.98704 6.466749,-4.563448 6.466749,-4.797199 0,-0.0744 -0.534373,-0.7297 -1.187494,-1.456129 -1.474714,-1.640221 -3.444471,-4.77271 -4.254661,-6.766131 -0.352723,-0.867839 -0.666363,-1.34057 -0.739473,-1.11456 -0.0698,0.21586 -0.390831,1.225909 -0.713311,2.24455 -0.736052,2.325039 -1.274785,3.40877 -3.070181,6.176089 -1.064911,1.64138 -1.386892,2.353681 -1.255803,2.778131 0.529922,1.715779 2.104107,3.878079 2.823307,3.878079 0.197412,0 1.066303,-0.42427 1.930867,-0.94283 z M 45.647677,87.820519 c 1.832904,-0.853379 3.64067,-2.778731 4.3241,-4.60538 0.745475,-1.99245 0.845964,-9.39995 0.159222,-11.73711 -0.397262,-1.351981 -3.222628,-6.02406 -3.893812,-6.438871 -0.342131,-0.211449 -1.928823,3.24394 -2.495205,5.433891 -0.247971,0.958781 -0.463001,2.888221 -0.486551,4.36562 -0.0653,4.095551 0.113339,12.851241 0.27051,13.260821 0.19407,0.50573 0.531682,0.461349 2.121736,-0.278971 z M 64.116789,84.10076 c 0.491182,-0.87313 1.275162,-2.718601 1.742165,-4.101041 0.70773,-2.095019 0.848822,-2.910039 0.847351,-4.8948 -0.0021,-2.604741 -0.350172,-3.85731 -1.667875,-5.99884 -0.43491,-0.706829 -0.790752,-1.34289 -0.790752,-1.413459 0,-0.0706 0.581713,-0.128321 1.292703,-0.128321 1.802847,0 3.849082,-1.111221 5.104194,-2.77187 1.026026,-1.357519 1.593667,-2.96269 2.66885,-7.54688 1.244563,-5.306369 3.47302,-9.398741 7.43701,-13.65745 1.099683,-1.181431 1.930046,-2.217441 1.845245,-2.30224 -0.0848,-0.0848 -0.467542,-0.105662 -0.850543,-0.0464 -0.383002,0.0593 -1.690264,0.248459 -2.905006,0.42038 -2.543299,0.35994 -5.303287,1.32547 -7.890442,2.760308 -2.211558,1.226532 -6.199888,5.133182 -7.565853,7.410911 -1.187943,1.980872 -2.237365,5.531691 -2.634027,8.912481 l -0.301822,2.572499 -1.705813,1.384001 c -2.351399,1.907789 -4.729493,4.746681 -5.710606,6.81713 -0.798414,1.684901 -0.822472,1.843961 -0.822472,5.43982 0,3.333689 0.061,3.828061 0.610231,4.94298 0.782653,1.58886 3.30306,3.354531 6.566128,4.599901 l 2.348667,0.896379 0.744801,-0.854001 c 0.409642,-0.46971 1.146685,-1.568389 1.637866,-2.441509 z m 15.310602,0.261768 3.031669,-2.277139 0.175491,-2.16731 c 0.0965,-1.19203 0.0472,-3.181401 -0.109621,-4.420831 -0.485481,-3.837199 -2.118957,-8.89201 -2.790228,-8.63442 -1.451834,0.55712 -4.764243,1.470372 -5.874726,1.6197 l -1.367935,0.183951 -0.351859,1.367139 c -0.218311,0.848241 -0.346063,2.823282 -0.336573,5.203601 0.0145,3.632081 0.0591,3.95233 0.838635,6.011629 0.941162,2.486462 2.939997,5.70298 3.427688,5.51583 0.17919,-0.0688 1.690055,-1.149728 3.357459,-2.40215 z m 6.78076,1.183341 c 10.336227,-2.606381 18.670379,-6.775539 26.546039,-13.27963 2.76169,-2.280751 7.84826,-7.517241 7.84928,-8.080661 0.002,-0.85797 -6.03543,-6.146279 -7.01643,-6.146279 -0.15247,0 -0.48463,0.351129 -0.73814,0.780291 -2.04833,3.467518 -8.8258,10.850708 -12.75008,13.88958 -1.164169,0.901499 -3.843072,2.810118 -5.953143,4.241369 -4.003831,2.71581 -11.878537,8.595849 -12.476201,9.315981 -0.414791,0.49979 -0.108259,0.45112 4.538675,-0.720651 z M 41.354893,84.960648 c 0.477393,-2.087999 0.634113,-4.310988 0.582882,-8.268229 -0.0581,-4.486669 -0.0604,-4.502211 -0.913183,-6.2177 -0.470219,-0.945891 -1.143223,-2.06742 -1.495553,-2.492291 l -0.640611,-0.772498 -0.196261,1.037079 c -0.544353,2.87651 1.374634,17.30896 2.301455,17.30896 0.123832,0 0.286402,-0.267891 0.361271,-0.595321 z m 48.207427,-9.43878 c 2.0532,-2.329228 2.17985,-2.545699 2.483451,-4.244528 0.708162,-3.962622 -0.0637,-7.532711 -2.08035,-9.622441 -0.925263,-0.958781 -2.619377,-2.0281 -3.213099,-2.0281 -0.14887,0 -0.569892,0.590489 -0.935613,1.312191 -0.740892,1.462079 -3.600251,4.660868 -4.390492,4.91168 -0.716202,0.227309 -0.652141,0.459409 0.562721,2.03899 1.304014,1.695498 4.049242,7.139739 4.513433,8.950899 0.185641,0.724339 0.463282,1.276189 0.616972,1.226341 0.153691,-0.0498 1.253034,-1.195112 2.442977,-2.545032 z m -46.265771,-9.292529 1.030823,-2.790169 0.008,-4.089001 c 0.0109,-5.542661 0.877072,-9.880451 2.677768,-13.410091 0.31114,-0.60988 0.565702,-1.155819 0.565702,-1.21321 0,-0.0574 -1.458514,-0.17594 -3.241149,-0.263459 -1.782636,-0.0875 -3.955543,-0.337179 -4.828666,-0.55481 -1.931823,-0.481491 -1.965663,-0.451551 -2.926437,2.589811 -0.911682,2.885998 -1.262642,5.68302 -1.066303,8.498178 0.30206,4.33106 1.479255,7.66753 3.808381,10.79395 0.736761,0.988962 1.606896,2.35032 1.933615,3.02524 0.507153,1.047642 0.624284,1.15229 0.800732,0.715431 0.113681,-0.28144 0.670554,-1.767279 1.237505,-3.30187 z M 53.882748,65.85067 c 3.41046,-3.880321 4.093812,-5.016572 5.721887,-9.514181 1.160184,-3.205041 2.860138,-6.81794 4.339753,-9.223219 l 1.105984,-1.79791 -0.779222,-1.13257 c -1.125266,-1.635501 -3.637272,-3.869921 -5.458946,-4.85571 l -1.576006,-0.85285 1.173724,-0.007 c 2.386737,-0.01429 6.260617,1.282909 8.564425,2.867959 l 1.154211,0.794121 2.511808,-1.295131 c 4.876584,-2.514478 9.650159,-3.69693 14.924563,-3.69693 h 2.991628 L 89.63347,34.98565 c 1.207957,-2.41341 2.23907,-5.59407 2.647632,-8.16715 0.525211,-3.30768 0.22379,-9.38668 -0.525432,-10.59683 -0.274511,-0.44338 -4.475456,-0.42709 -9.22369,0.0358 -2.514477,0.24511 -2.979258,0.38261 -5.423976,1.60456 -5.044993,2.52166 -9.495575,5.7942 -13.006577,9.56383 -2.248395,2.41402 -5.003303,6.377851 -6.104716,8.783641 -0.975392,2.130539 -1.090303,1.442098 -0.2489,-1.491171 1.309893,-4.56653 3.425139,-8.81626 6.500026,-13.05917 0.843685,-1.16416 1.503586,-2.14913 1.466455,-2.18881 -0.0371,-0.0397 -1.118384,0.29876 -2.402785,0.75209 -8.619914,3.04245 -16.245976,8.85783 -20.947619,15.973969 l -1.213875,1.837241 0.899324,0.76269 c 1.876156,1.591109 5.058313,2.82934 7.287611,2.83572 1.592423,0.005 4.24726,-0.898301 5.870875,-1.99657 0.776173,-0.525029 1.465674,-0.900139 1.532235,-0.83358 0.0666,0.0666 -0.488343,0.787749 -1.233104,1.602639 -1.570944,1.71886 -3.714451,3.090672 -5.885356,3.76655 l -1.529164,0.476081 -0.515642,1.735161 c -1.542515,5.190659 -1.394305,11.263418 0.381562,15.63383 0.801692,1.972969 3.325478,6.085999 3.717599,6.058598 0.14771,-0.01029 1.140762,-1.011129 2.206795,-2.224029 z m 44.175565,-1.528252 c 1.060539,-1.63671 2.951397,-5.00693 4.201917,-7.489389 l 2.27366,-4.513561 -0.56388,-1.27476 c -0.31014,-0.701119 -0.56389,-1.33092 -0.56389,-1.39955 0,-0.0686 0.40503,0.11418 0.90007,0.406262 l 0.90008,0.531048 0.85278,-2.25946 c 1.21456,-3.218029 2.47087,-7.217158 3.16571,-10.07718 0.4393,-1.808239 0.74783,-2.557769 1.16022,-2.81863 1.14701,-0.72553 9.42665,-1.726839 14.32016,-1.731819 l 2.64584,-0.003 1.66558,-2.07891 c 1.64312,-2.05086 4.90245,-5.34391 7.17089,-7.24507 l 1.16354,-0.97515 -1.25963,-0.53994 c -0.69279,-0.29696 -2.66985,-0.975639 -4.39346,-1.50818 l -3.13383,-0.96825 -2.1897,0.58606 c -4.34727,1.16354 -7.69952,3.252361 -11.27915,7.02815 -1.06534,1.123721 -2.49409,2.910861 -3.17501,3.971421 -2.0724,3.227868 -1.91237,3.03164 -1.73836,2.131689 0.99296,-5.135239 3.71234,-10.6589 7.04011,-14.3 0.73442,-0.80358 1.28982,-1.50582 1.23423,-1.56055 -0.37772,-0.37185 -16.43766,-2.263399 -19.217108,-2.263399 -0.788302,0 -0.792482,0.008 -0.978889,1.89988 -0.22936,2.327649 -1.177673,6.134799 -2.079856,8.349879 -0.859767,2.11094 -2.812512,5.393151 -4.620488,7.766182 -1.289663,1.692727 -1.346653,1.822638 -0.639071,1.45673 0.427271,-0.220951 1.769885,-0.65913 2.983578,-0.973731 1.977961,-0.512709 2.660272,-0.55672 6.581854,-0.424539 2.40632,0.0811 4.97044,0.303209 5.69805,0.493537 1.31991,0.345271 1.3148,0.346422 -2.24897,0.506371 -3.75654,0.168589 -6.378539,0.63846 -8.75662,1.569212 -1.172424,0.458859 -3.47823,1.643438 -3.916161,2.011867 -0.0578,0.0486 0.330841,0.953911 0.863582,2.011802 2.351797,4.670071 2.870648,12.55291 1.268704,19.275211 l -0.478022,2.005938 0.751052,0.899642 c 0.413082,0.4948 1.076533,1.70402 1.474354,2.687148 0.397812,0.983131 0.782838,1.788652 0.855598,1.790041 0.0728,0.0011 1.000003,-1.336601 2.060536,-2.973311 z M 77.818836,62.7658 c 1.832255,-1.372161 3.336608,-3.18489 4.06341,-4.896371 0.652974,-1.537661 0.577574,-4.402349 -0.160718,-6.10565 -0.890762,-2.05509 -1.083734,-2.112441 -2.196786,-0.65292 -1.345765,1.764679 -1.967517,3.36218 -2.740747,7.041899 -0.698793,3.325442 -1.261574,4.894011 -2.257947,6.293281 l -0.589034,0.82722 1.069253,-0.600951 c 0.588094,-0.33052 1.853748,-1.18845 2.812569,-1.906508 z m 14.891077,-2.779591 c 0.311061,-2.074301 -0.0687,-8.235212 -0.637462,-10.34058 -0.709832,-2.627742 -1.879735,-5.006542 -3.158853,-6.422999 l -1.075183,-1.190622 -1.186563,1.154591 c -0.652602,0.635029 -1.393934,1.539661 -1.647385,2.010299 -0.449301,0.8343 -0.442991,0.907362 0.252381,2.921 1.143483,3.311242 1.545524,5.37881 1.589414,8.173701 l 0.0411,2.61792 1.446334,0.366369 c 0.795493,0.201491 1.98212,0.70971 2.636972,1.129371 0.654842,0.41965 1.272633,0.773369 1.372854,0.786019 0.10022,0.0127 0.2651,-0.529619 0.366391,-1.205069 z M 164.52381,46.463778 c -3.28077,-6.08508 -8.01929,-11.48339 -13.86595,-15.796619 -2.82667,-2.08531 -2.71166,-2.05126 -4.8102,-1.423841 -2.60634,0.77924 -6.59975,2.401351 -9.43985,3.834441 l -2.44222,1.232328 2.87583,0.607592 c 4.04166,0.853901 8.35734,2.08792 11.14711,3.187391 5.02738,1.981319 11.77279,5.861129 15.71998,9.041778 0.93335,0.752091 1.74737,1.367451 1.80892,1.367451 0.0615,0 -0.38558,-0.922739 -0.99362,-2.050521 z"
       id="path847" />
  </g>
  <g
     inkscape:groupmode="layer"
     id="layer3"
     inkscape:label="Yellows"
     style="display:inline">
    <path
       style="fill:#ffdd55;fill-opacity:1;fill-rule:nonzero;stroke:none;stroke-width:72.3135;stroke-miterlimit:4;stroke-dasharray:none"
       d="m 310.79851,324.85834 c 6.77512,-5.49243 32.12636,-24.08774 47.63356,-34.93953 10.24539,-7.16963 22.82825,-16.7038 27.9619,-21.18703 11.08602,-9.68147 27.80015,-28.05562 36.64336,-40.28273 l 6.34976,-8.77952 5.04384,3.47025 c 6.13395,4.22027 20.68271,17.80336 20.68271,19.3099 0,0.5977 -5.74106,6.96199 -12.75791,14.14286 -32.12265,32.87352 -70.18308,54.26059 -118.08229,66.35329 -14.84005,3.74654 -15.92769,3.90091 -13.47493,1.91251 z"
       id="path1485"
       transform="scale(0.26458333)" />
    <path
       style="fill:#ffdd55;fill-opacity:1;fill-rule:nonzero;stroke:none;stroke-width:72.3135;stroke-miterlimit:4;stroke-dasharray:none"
       d="m 336.93182,349.46066 c -2.8125,-2.79649 -8.12697,-6.96489 -11.80993,-9.26312 -6.18018,-3.85654 -6.48672,-4.23729 -3.97727,-4.94006 1.49546,-0.4188 5.05856,-0.81243 7.918,-0.87473 12.42872,-0.27079 44.48297,-7.37434 64.77623,-14.35508 23.06976,-7.93584 58.94243,-27.34927 75.74235,-40.98994 l 3.67212,-2.98157 1.25808,3.25439 c 0.69194,1.78991 1.82878,5.93459 2.5263,9.2104 1.26353,5.93393 1.25368,5.97123 -2.65746,10.06082 -10.93327,11.43213 -30.29082,24.41349 -51.65297,34.639 -22.62558,10.83029 -52.58192,19.33162 -73.29545,20.80058 l -7.38637,0.52383 z"
       id="path1487"
       transform="scale(0.26458333)" />
    <path
       style="fill:#ffdd55;fill-opacity:1;fill-rule:nonzero;stroke:none;stroke-width:72.3135;stroke-miterlimit:4;stroke-dasharray:none"
       d="m 359.65909,391.1812 c 0,-0.75698 -2.04371,-6.79967 -4.54157,-13.42821 -2.49787,-6.62853 -4.28447,-12.30898 -3.97023,-12.62322 0.31423,-0.31423 11.69032,-0.934 25.2802,-1.37726 19.86604,-0.64797 27.49291,-1.38096 38.91342,-3.73982 18.13605,-3.74593 37.05565,-9.75224 52.55682,-16.68496 l 12.21591,-5.46343 v 3.21041 c 0,3.81815 -5.30737,8.60435 -21.67101,19.543 -14.93492,9.98359 -24.44477,14.75629 -40.23654,20.19349 -21.63204,7.44802 -58.547,13.9865 -58.547,10.37 z"
       id="path1489"
       transform="scale(0.26458333)" />
    <path
       style="fill:#ffdd55;fill-opacity:1;fill-rule:nonzero;stroke:none;stroke-width:72.3135;stroke-miterlimit:4;stroke-dasharray:none"
       d="m 360.79545,431.20208 c 0,-4.37433 0.32145,-11.75606 0.71433,-16.40384 l 0.71433,-8.45052 21.64899,0.46565 c 13.21035,0.28414 26.33107,-0.0865 33.66067,-0.95092 12.63363,-1.48991 33.53198,-6.22689 44.86859,-10.17025 3.6963,-1.28573 6.93003,-2.12821 7.18606,-1.87217 0.94612,0.94611 -3.45747,7.93451 -6.80113,10.79325 -22.6023,19.32438 -56.23145,32.01034 -89.77593,33.86626 l -12.21591,0.67588 z"
       id="path1491"
       transform="scale(0.26458333)" />
    <path
       style="fill:#ffdd55;fill-opacity:1;fill-rule:nonzero;stroke:none;stroke-width:72.3135;stroke-miterlimit:4;stroke-dasharray:none"
       d="m 351.70455,483.83682 c 0,-2.00136 6.87746,-32.91358 7.4579,-33.52115 0.22651,-0.2371 14.36558,-0.51347 31.42015,-0.61417 l 31.00831,-0.18308 15.05682,-4.03302 c 8.28125,-2.21815 15.05682,-3.90706 15.05682,-3.75312 0,0.15394 -1.47184,3.52358 -3.27075,7.48809 -4.16347,9.17564 -7.40663,12.15274 -20.02471,18.38198 -19.44405,9.59905 -37.92968,14.93764 -55.68182,16.08075 -5.625,0.36221 -12.65625,0.91561 -15.625,1.22979 -4.21974,0.44657 -5.39772,0.21173 -5.39772,-1.07607 z"
       id="path1493"
       transform="scale(0.26458333)" />
    <path
       style="fill:#ffdd55;fill-opacity:1;fill-rule:nonzero;stroke:none;stroke-width:72.3135;stroke-miterlimit:4;stroke-dasharray:none"
       d="m 346.24915,522.98878 c -2.06296,-0.52571 -4.02762,-1.23262 -4.3659,-1.5709 -0.33828,-0.33828 1.03244,-6.56328 3.04605,-13.83332 l 3.66111,-13.21827 9.22752,0.91751 c 13.42785,1.33514 47.49843,0.68259 58.37525,-1.11806 5.15625,-0.85361 9.37496,-1.25618 9.37491,-0.8946 -5e-5,0.36159 -2.96687,5.77063 -6.59293,12.02009 l -6.59284,11.36265 -10.73661,3.26444 c -9.79505,2.97815 -12.53043,3.29784 -31.19116,3.64537 -11.25,0.20951 -22.14243,-0.0492 -24.2054,-0.57491 z"
       id="path1495"
       transform="scale(0.26458333)" />
    <path
       style="fill:#ffdd55;fill-opacity:1;fill-rule:nonzero;stroke:none;stroke-width:72.3135;stroke-miterlimit:4;stroke-dasharray:none"
       d="m 333.70675,566.48476 c -2.04776,-0.4481 -2.52237,-1.14644 -2.07018,-3.04606 0.32268,-1.35557 0.9263,-4.82139 1.34137,-7.70182 l 0.75468,-5.23715 12.11096,-0.78077 c 6.66103,-0.42942 13.26153,-1.06848 14.66778,-1.42013 4.03613,-1.00929 2.9809,-2.66486 -1.70454,-2.6743 -4.22463,-0.009 -17.31756,-1.83271 -20.89392,-2.9111 -1.57053,-0.47356 -1.69296,-1.30647 -0.7871,-5.35464 0.59,-2.63662 1.4972,-5.22209 2.016,-5.74548 0.5188,-0.5234 5.73095,0.33199 11.58256,1.90086 14.10623,3.78201 24.78681,5.30077 37.2774,5.30077 6.72807,0 10.29369,0.43293 10.29369,1.24986 0,0.68742 -2.82826,6.245 -6.28504,12.35016 l -6.28504,11.10029 -6.49905,1.38076 c -6.71592,1.42682 -40.81993,2.61714 -45.51957,1.58875 z"
       id="path1497"
       transform="scale(0.26458333)" />
    <path
       style="fill:#ffdd55;fill-opacity:1;fill-rule:nonzero;stroke:none;stroke-width:72.3135;stroke-miterlimit:4;stroke-dasharray:none"
       d="m 328.57084,609.53119 c -0.31713,-0.51311 -0.2774,-8.71775 0.0883,-18.23252 0.58208,-15.14552 0.8909,-17.22846 2.48015,-16.72844 6.88038,2.16474 25.20987,5.30216 34.54017,5.91217 8.3201,0.54397 10.99392,1.09295 10.57977,2.17221 -2.70413,7.04685 -8.01867,18.94142 -10.11456,22.6376 l -2.57746,4.54545 -17.20988,0.31323 c -9.46543,0.17228 -17.46934,-0.10659 -17.78646,-0.6197 z"
       id="path1499"
       transform="scale(0.26458333)" />
    <path
       style="fill:#ffdd55;fill-opacity:1;fill-rule:nonzero;stroke:none;stroke-width:72.3135;stroke-miterlimit:4;stroke-dasharray:none"
       d="m 338.53856,643.66843 c -1.08057,-1.08057 -2.88841,-4.05292 -4.01741,-6.60521 -2.21632,-5.01036 -5.77053,-17.71861 -5.13362,-18.35551 0.21442,-0.21443 7.11324,0.73563 15.33071,2.11123 9.90345,1.65783 14.94085,2.98219 14.94085,3.92803 0,1.41368 -2.96768,15.0694 -4.10684,18.89751 -0.84984,2.85589 -14.16301,2.87463 -17.01369,0.024 z"
       id="path1501"
       transform="scale(0.26458333)" />
    <path
       style="fill:#ffdd55;fill-opacity:1;fill-rule:nonzero;stroke:none;stroke-width:72.3135;stroke-miterlimit:4;stroke-dasharray:none"
       d="m 347.33705,661.95516 -3.71893,-7.5416 3.61708,0.72341 c 1.98939,0.39788 4.19236,0.72249 4.89548,0.72135 0.84789,-0.001 1.14875,2.29475 0.89339,6.81818 -0.21177,3.75114 -0.74122,6.82025 -1.17656,6.82025 -0.43534,0 -2.46505,-3.39371 -4.51046,-7.54159 z"
       id="path1503"
       transform="scale(0.26458333)" />
  </g>
  <g
     inkscape:groupmode="layer"
     id="layer2"
     inkscape:label="Reds"
     style="display:inline">
    <path
       style="fill:#d40000;fill-opacity:1;stroke:none;stroke-width:63.6364"
       d="m 283.52273,242.80002 c 0,-0.37887 0.73976,-2.1194 1.64392,-3.86785 0.90415,-1.74844 3.22339,-9.52134 5.15387,-17.27311 3.62633,-14.56145 8.54172,-26.40257 12.41517,-29.90799 2.15946,-1.95429 2.29723,-1.87021 4.79038,2.92358 1.9702,3.78826 2.58259,6.91713 2.63409,13.45847 0.0584,7.41356 -0.35402,9.22585 -3.16882,13.9255 -1.77977,2.97153 -6.20896,8.08516 -9.84265,11.36364 -6.44657,5.81636 -13.62596,10.75742 -13.62596,9.37776 z"
       id="path1480"
       transform="scale(0.26458333)" />
    <path
       style="fill:#d40000;fill-opacity:1;fill-rule:nonzero;stroke:none;stroke-width:63.6359;stroke-miterlimit:4;stroke-dasharray:none"
       d="m 222.15909,555.75366 c -22.01566,-11.93479 -39.86735,-30.15866 -48.36498,-49.3733 -4.91077,-11.10413 -6.31339,-19.06778 -6.29039,-35.71493 0.0319,-23.09888 3.2045,-36.20641 17.34194,-71.64814 8.18644,-20.52293 6.73229,-19.29326 22.81528,-19.29326 8.89864,0 9.06521,0.0514 8.27659,2.55681 -3.8317,12.17291 -4.12845,14.42918 -3.69904,28.125 0.41078,13.10128 0.77845,15.08716 4.73376,25.56819 6.38835,16.92827 16.83961,38.24618 24.09995,49.1578 11.9746,17.99673 33.23759,37.96603 50.76661,47.67784 10.19226,5.64695 2.73134,3.65229 -9.75391,-2.60768 -16.33372,-8.18954 -26.69577,-15.85501 -41.1847,-30.46691 -15.95533,-16.09074 -25.39586,-28.98835 -38.15223,-52.12339 -5.08616,-9.22428 -9.71486,-17.06023 -10.28601,-17.41322 -1.38021,-0.85302 -4.71426,6.88529 -8.29601,19.25495 -2.51973,8.70195 -2.91595,12.25953 -2.91595,26.18171 0,10.7633 0.57773,18.35961 1.74044,22.88424 2.41915,9.41397 8.61357,22.1112 14.54765,29.81952 6.46832,8.40232 20.57545,21.77574 28.56906,27.0832 3.45357,2.29304 6.27921,4.35245 6.27921,4.57646 0,1.00929 -2.28315,0.0617 -10.22727,-4.24489 z"
       id="path1482"
       transform="scale(0.26458333)" />
  </g>
  <g
     inkscape:groupmode="layer"
     id="layer4"
     inkscape:label="Whites"
     style="display:inline">
    <path
       style="fill:#ffffff;fill-opacity:1;fill-rule:nonzero;stroke:none;stroke-width:72.3135;stroke-miterlimit:4;stroke-dasharray:none"
       d="m 620.94027,179.0565 c -3.33869,-4.02289 -29.73326,-20.41827 -44.80391,-27.83064 -17.32182,-8.51958 -29.59747,-12.86684 -49.55914,-17.5507 -7.11747,-1.67007 -14.17977,-3.39957 -15.69401,-3.84334 -2.3305,-0.683 -0.53862,-1.80449 11.67225,-7.30539 20.99726,-9.45909 34.14972,-13.6875 37.38883,-12.02021 6.29253,3.23901 20.54811,14.89768 31.04712,25.39133 11.53005,11.52417 19.57248,21.95079 27.95625,36.24394 4.31118,7.34996 5.3524,10.96329 1.99261,6.91501 z"
       id="path1512"
       transform="scale(0.26458333)" />
    <path
       style="fill:#ffffff;fill-opacity:1;fill-rule:nonzero;stroke:none;stroke-width:72.3135;stroke-miterlimit:4;stroke-dasharray:none"
       d="m 360.13245,247.24751 c -1.09304,-2.86207 -3.35955,-7.09805 -5.03669,-9.41328 l -3.04934,-4.20949 2.19481,-10.18899 c 1.54384,-7.16697 2.2327,-15.0761 2.32255,-26.66627 0.14462,-18.65548 -1.78494,-29.7937 -7.26187,-41.91854 -1.80355,-3.9927 -3.27918,-7.73336 -3.27918,-8.31258 0,-1.53011 15.30866,-8.35551 23.48005,-10.46862 3.85152,-0.99601 11.77766,-2.09144 17.61363,-2.4343 24.43988,-1.43582 23.25189,-3.50218 -2.961,-5.15029 -17.37179,-1.09224 -21.65585,-0.73804 -36.31354,3.00236 -3.77414,0.9631 -3.96238,1.46609 3.60568,-9.63463 10.79573,-15.83501 18.30428,-35.302242 20.25025,-52.502319 0.41279,-3.648562 1.32465,-7.074763 2.02636,-7.613782 0.70935,-0.544883 6.32147,-0.558525 12.63948,-0.03072 17.10092,1.428598 57.84188,6.691629 58.76043,7.590839 0.44324,0.433905 -1.96635,4.246024 -5.35466,8.471376 -7.05587,8.798955 -13.24857,19.433531 -17.61693,30.253126 -3.22926,7.99826 -7.2399,22.78944 -6.4056,23.62376 0.27628,0.27627 3.68327,-4.142 7.57111,-9.81839 9.93954,-14.51213 25.94684,-29.427391 37.90928,-35.323079 5.075,-2.501211 12.70418,-5.532336 16.95375,-6.735834 l 7.72647,-2.188176 13.86444,4.47246 c 7.62543,2.459852 14.63148,4.982782 15.56898,5.606509 1.38359,0.92052 -0.13057,2.831446 -8.04161,10.148823 -5.36039,4.958127 -13.42756,13.351017 -17.92706,18.650857 l -8.1809,9.63608 -13.32294,0.69472 c -15.98476,0.83352 -41.32905,3.67255 -47.16144,5.28295 -2.31162,0.63827 -4.74248,2.16861 -5.4019,3.40077 -0.65943,1.23215 -3.19729,9.26375 -5.63969,17.848 -3.90435,13.72255 -10.44956,33.08558 -12.07014,35.70774 -0.31081,0.5029 -2.07019,0.13608 -3.90972,-0.81518 -3.90026,-2.0169 -3.92875,-1.92069 -1.47911,4.99448 l 1.8655,5.26615 -4.85381,9.65909 c -9.49647,18.89803 -24.58069,44.26945 -26.34001,44.3035 -0.41706,0.008 -1.65259,-2.32703 -2.74563,-5.18911 z"
       id="path1514"
       transform="scale(0.26458333)" />
    <path
       style="fill:#ffffff;fill-opacity:1;fill-rule:nonzero;stroke:none;stroke-width:72.3135;stroke-miterlimit:4;stroke-dasharray:none"
       d="m 360.13245,247.24751 c -1.09304,-2.86207 -3.35955,-7.09805 -5.03669,-9.41328 l -3.04934,-4.20949 2.17662,-10.18899 c 1.53434,-7.18243 2.20493,-15.0511 2.27258,-26.66627 0.10598,-18.19631 -1.4855,-27.97895 -6.50332,-39.97512 -4.92668,-11.77828 -5.21325,-10.735 4.13356,-15.04881 11.12717,-5.1355 20.16146,-7.35641 32.99055,-8.11011 24.34673,-1.43034 23.28131,-3.36801 -2.80669,-5.10451 -17.49737,-1.16468 -21.63093,-0.82955 -36.46785,2.95658 -3.78312,0.9654 -3.96592,1.44601 3.69623,-9.71803 10.39201,-15.14156 18.00048,-35.027142 20.09587,-52.522817 0.42817,-3.57505 1.36069,-6.947802 2.07226,-7.495004 0.73168,-0.562667 6.23077,-0.58248 12.65741,-0.0456 17.03706,1.423263 57.84034,6.690145 58.75349,7.583894 0.43942,0.430085 -2.1546,4.487739 -5.76449,9.017008 -8.08548,10.144717 -16.06769,25.166339 -19.77405,37.212529 -5.78348,18.79713 -5.23413,19.55027 4.16611,5.7116 9.35542,-13.77268 25.71039,-28.925484 37.48257,-34.727399 5.075,-2.501211 12.70418,-5.532336 16.95375,-6.735834 l 7.72647,-2.188176 13.86444,4.47246 c 7.62543,2.459852 14.60645,4.953662 15.51334,5.541798 1.29886,0.842322 -1.01649,3.678837 -10.90614,13.361081 -6.90529,6.76046 -15.06207,15.20581 -18.12619,18.76745 l -5.57112,6.47571 -20.00992,1.22399 c -20.38402,1.24687 -39.42362,3.76575 -43.02232,5.69172 -2.42841,1.29965 -3.4087,3.78787 -7.96129,20.20779 -3.16776,11.42524 -10.52728,33.17342 -12.07106,35.67131 -0.32291,0.52249 -2.09219,0.17168 -3.93172,-0.77958 -3.90026,-2.0169 -3.92875,-1.92069 -1.47911,4.99448 l 1.8655,5.26615 -4.85381,9.65909 c -9.49647,18.89803 -24.58069,44.26945 -26.34001,44.3035 -0.41706,0.008 -1.65259,-2.32703 -2.74563,-5.18911 z"
       id="path1516"
       transform="scale(0.26458333)" />
    <path
       style="fill:#ffffff;fill-opacity:1;fill-rule:nonzero;stroke:none;stroke-width:72.3135;stroke-miterlimit:4;stroke-dasharray:none"
       d="m 344.95652,228.3001 c -2.14891,-1.36359 -6.4955,-3.35277 -9.65909,-4.4204 l -5.75198,-1.94114 -0.27722,-5.48227 c -0.52175,-10.31794 -2.61947,-22.52754 -5.43236,-31.61863 -1.54706,-5 -2.8129,-10.0077 -2.81299,-11.12823 -8e-5,-1.12052 2.38508,-4.58733 5.30037,-7.704 l 5.30053,-5.66669 3.29914,3.15855 c 4.62505,4.42795 10.83399,17.59706 12.74036,27.02219 2.00718,9.92354 3.24388,31.73328 2.07577,36.60721 l -0.87541,3.65267 z"
       id="path1518"
       transform="scale(0.26458333)" />
    <path
       style="fill:#ffffff;fill-opacity:1;fill-rule:nonzero;stroke:none;stroke-width:72.3135;stroke-miterlimit:4;stroke-dasharray:none"
       d="m 327.61952,289.7697 c -2.23092,-6.45914 -14.21463,-29.69165 -17.74524,-34.40223 l -3.35044,-4.4702 6.20558,-5.67155 c 3.41307,-3.11936 8.22847,-8.65038 10.70088,-12.29117 2.47241,-3.64079 4.75732,-6.61961 5.07756,-6.61961 2.11375,0 7.716,4.11521 11.58324,8.50863 6.17334,7.01329 8.81442,16.62856 7.815,28.45175 -0.39807,4.70914 -1.44792,9.96244 -2.33301,11.67401 -1.68526,3.25894 -13.97569,17.56117 -15.66524,18.22946 -0.53754,0.21262 -1.56729,-1.32147 -2.28833,-3.40909 z"
       id="path1520"
       transform="scale(0.26458333)" />
    <path
       style="fill:#ffffff;fill-opacity:1;fill-rule:nonzero;stroke:none;stroke-width:72.3135;stroke-miterlimit:4;stroke-dasharray:none"
       d="m 284.21099,323.73247 c -1.6069,-2.10675 -4.83686,-7.88471 -7.1777,-12.83991 -4.21601,-8.92463 -4.25975,-9.16456 -4.64715,-25.48672 -0.27476,-11.57662 0.0558,-17.81068 1.11139,-20.96054 1.46087,-4.35914 1.70699,-4.52215 8.88883,-5.88705 4.0625,-0.77208 9.91497,-2.18624 13.00548,-3.14259 7.00856,-2.16879 7.88442,-1.52923 10.7904,7.87922 5.0098,16.21986 7.26756,36.21678 5.03128,44.56203 -0.4017,1.49907 -4.99875,5.70127 -11.06403,10.1137 -5.70722,4.15196 -10.97079,8.00876 -11.69681,8.57066 -0.88325,0.6836 -2.28682,-0.24583 -4.24169,-2.8088 z"
       id="path1522"
       transform="scale(0.26458333)" />
    <path
       style="fill:#ffffff;fill-opacity:1;fill-rule:nonzero;stroke:none;stroke-width:72.3135;stroke-miterlimit:4;stroke-dasharray:none"
       d="m 245.9975,347.69069 c -6.19558,-8.55276 -6.17833,-8.65699 4.57248,-27.62575 2.47959,-4.375 5.60528,-11.2244 6.94597,-15.22087 l 2.43762,-7.26633 4.97072,9.60134 c 2.73389,5.28074 7.52559,12.77191 10.64821,16.64705 3.12263,3.87514 5.67084,7.42665 5.6627,7.89226 -0.0381,2.17687 -27.177,20.68824 -30.3758,20.71922 -0.77733,0.007 -2.96518,-2.12859 -4.8619,-4.74692 z"
       id="path1524"
       transform="scale(0.26458333)" />
    <path
       style="fill:#ffffff;fill-opacity:1;fill-rule:nonzero;stroke:none;stroke-width:72.3135;stroke-miterlimit:4;stroke-dasharray:none"
       d="m 224.43182,326.11242 c -11.63503,-4.83641 -20.4997,-10.99406 -23.56085,-16.36606 -2.25276,-3.95337 -2.54023,-6.06272 -2.55682,-18.76129 -0.018,-13.79343 0.11058,-14.56866 3.58169,-21.59091 2.66007,-5.38148 6.65786,-10.30992 15.30732,-18.87074 l 11.70694,-11.58698 1.71526,-11.47157 c 3.35204,-22.41827 9.02752,-33.5579 24.52503,-48.13684 8.95332,-8.42265 19.50406,-14.80329 30.07688,-18.18921 6.15873,-1.97231 25.56818,-5.31578 25.56818,-4.40436 0,0.30762 -3.41454,4.45555 -7.58787,9.21762 -13.61021,15.53021 -20.53696,28.30506 -25.95211,47.86286 -6.23344,22.5132 -7.3637,25.69587 -10.76565,30.31461 -4.14294,5.62476 -13.31537,10.59448 -19.55385,10.59448 -2.37728,0 -4.32463,0.38352 -4.32743,0.85227 -0.003,0.46875 1.91481,4.64217 4.26136,9.27427 4.07976,8.05343 4.26272,8.89882 4.18085,19.31818 -0.0705,8.97658 -0.64226,12.39765 -3.24531,19.41891 -3.41923,9.22278 -8.13885,18.07012 -12.25705,22.97691 l -2.59384,3.09054 z"
       id="path1526"
       transform="scale(0.26458333)" />
    <path
       style="fill:#ffffff;fill-opacity:1;fill-rule:nonzero;stroke:none;stroke-width:72.3135;stroke-miterlimit:4;stroke-dasharray:none"
       d="m 188.2925,360.90723 c -3.31412,-0.89197 -7.11767,-2.20618 -8.45232,-2.92046 -2.86545,-1.53354 -13.36291,-11.18853 -13.36291,-12.29046 0,-0.4192 1.92797,-1.61279 4.28438,-2.65244 5.39065,-2.37835 18.22165,-12.90011 23.03414,-18.88862 l 3.65341,-4.54617 6.38904,4.33198 c 7.33254,4.9717 15.90818,9.42136 21.88338,11.35466 l 4.1307,1.3365 0.81305,9.76053 c 0.63692,7.64619 0.48061,9.96764 -0.72162,10.71663 -3.2721,2.03856 -21.4897,5.56552 -28.37987,5.49441 -3.98513,-0.0411 -9.95725,-0.80458 -13.27138,-1.69656 z"
       id="path1528"
       transform="scale(0.26458333)" />
    <path
       style="fill:#ffffff;fill-opacity:1;fill-rule:nonzero;stroke:none;stroke-width:72.3135;stroke-miterlimit:4;stroke-dasharray:none"
       d="m 164.72243,329.28741 c -0.3968,-2.11514 -0.53552,-16.81684 -0.30826,-32.67045 l 0.4132,-28.82475 3.73099,-9.09091 c 5.4664,-13.31937 5.82992,-13.47847 11.23349,-4.91636 9.66315,15.3115 9.82315,15.82903 10.33029,33.41335 0.72953,25.29539 -2.23855,33.65144 -15.00427,42.24165 -7.17823,4.83031 -9.46695,4.79673 -10.39544,-0.15253 z"
       id="path1530"
       transform="scale(0.26458333)" />
    <path
       style="fill:#ffffff;fill-opacity:1;fill-rule:nonzero;stroke:none;stroke-width:72.3135;stroke-miterlimit:4;stroke-dasharray:none"
       d="m 152.38634,313.65335 c -3.87557,-17.99763 -6.95848,-49.1519 -5.4296,-54.86859 l 0.86767,-3.24435 1.77844,2.71681 c 0.97814,1.49424 3.17404,5.47219 4.87977,8.83989 l 3.10133,6.12309 -0.38289,23.08309 c -0.4385,26.43631 -1.80091,31.34582 -4.81472,17.35006 z"
       id="path1532"
       transform="scale(0.26458333)" />
    <path
       style="fill:#ffffff;fill-opacity:1;fill-rule:nonzero;stroke:none;stroke-width:72.3135;stroke-miterlimit:4;stroke-dasharray:none"
       d="m 157.38636,261.66657 c 0,-0.5566 -3.14823,-5.79808 -6.99608,-11.64773 -12.36756,-18.80165 -15.15822,-27.68377 -15.12371,-48.13572 0.0182,-10.76652 0.57653,-15.59373 2.65309,-22.93697 3.86191,-13.65668 3.46487,-13.35393 15.56778,-11.87075 5.58191,0.68405 13.5559,1.54461 17.71998,1.91234 l 7.57105,0.66862 -2.8933,6.3198 c -5.19167,11.3401 -7.12384,21.33583 -8.41248,43.52059 -1.13978,19.62207 -1.48812,21.76092 -5.22817,32.10228 -3.71309,10.26683 -4.85816,12.63974 -4.85816,10.06754 z"
       id="path1534"
       transform="scale(0.26458333)" />
    <path
       style="fill:#ffffff;fill-opacity:1;fill-rule:nonzero;stroke:none;stroke-width:72.3135;stroke-miterlimit:4;stroke-dasharray:none"
       d="m 188.24222,245.95739 c -9.16541,-15.36333 -10.97138,-22.43849 -10.96016,-42.93791 0.007,-13.31001 0.47887,-18.66415 2.15191,-24.43182 2.53828,-8.75046 2.97617,-9.25529 10.33876,-11.91931 3.125,-1.13073 8.38075,-3.8286 11.67944,-5.99528 6.09856,-4.00571 14.77203,-13.39908 13.5243,-14.64682 -0.37703,-0.37703 -3.13393,0.87459 -6.12644,2.78137 -5.93668,3.78275 -17.95239,8.18913 -22.33085,8.18913 -7.68266,0 -27.07661,-8.78069 -28.69205,-12.99044 -1.07884,-2.81141 8.49915,-15.47757 21.61356,-28.58226 13.72952,-13.71936 29.17763,-24.787333 44.43773,-31.837933 9.048,-4.180434 21.11252,-8.681758 21.69848,-8.095797 0.1747,0.174699 -3.04799,5.417501 -7.16154,11.650671 -10.96788,16.619419 -19.90464,36.838239 -22.57565,51.075919 -0.98831,5.26816 0.82325,5.13113 3.36133,-0.25425 4.39434,-9.32404 17.66064,-27.50738 26.81391,-36.75225 15.02674,-15.177125 37.1917,-30.303485 53.15747,-36.277046 5.9067,-2.209981 25.06505,-4.498166 37.8263,-4.517801 9.33236,-0.01436 10.09163,0.936726 11.60029,14.530696 2.14254,19.30557 -0.91701,36.135681 -10.21625,56.198221 l -4.08207,8.80682 h -11.03558 c -19.54403,0 -36.69037,4.16036 -55.97413,13.58147 l -9.59509,4.6877 -6.68886,-3.94536 C 247.32817,152.10516 241.25,149.3118 237.5,148.06765 c -7.71973,-2.56121 -21.03934,-4.37947 -20.9905,-2.8654 0.0177,0.54947 2.70904,2.61768 5.9807,4.59601 7.77121,4.69914 15.47936,11.54424 19.44707,17.26966 l 3.18207,4.59172 -2.24837,3.17992 c -3.83987,5.43081 -12.46575,23.43964 -18.38921,38.39238 -3.11657,7.86723 -7.44367,16.96965 -9.61578,20.22762 -4.67308,7.00918 -17.50854,21.69374 -19.36689,22.15692 -0.71557,0.17834 -3.98116,-4.16825 -7.25687,-9.65909 z"
       id="path1536"
       transform="scale(0.26458333)" />
    <path
       style="fill:#ffffff;fill-opacity:1;fill-rule:nonzero;stroke:none;stroke-width:72.3135;stroke-miterlimit:4;stroke-dasharray:none"
       d="m 188.24222,245.95739 c -3.27572,-5.49085 -7.08392,-13.56291 -8.46267,-17.93791 -4.95331,-15.71761 -2.41691,-55.42219 3.74318,-58.59538 0.9375,-0.48293 5.59844,-2.65154 10.35765,-4.81914 6.03258,-2.74757 10.60211,-5.89011 15.08883,-10.37682 3.53965,-3.53965 6.14589,-6.90469 5.79165,-7.47787 -0.35425,-0.57318 -3.05331,0.43269 -5.99793,2.23527 -6.00004,3.67299 -18.04546,8.01121 -22.24375,8.01121 -7.68266,0 -27.07661,-8.78069 -28.69205,-12.99044 -0.9822,-2.55957 8.08821,-14.93882 19.7936,-27.01421 16.40174,-16.92018 37.74485,-31.047496 58.04549,-38.421149 5.24142,-1.903802 9.68701,-3.304306 9.87908,-3.112227 0.19208,0.192077 -2.99124,5.449097 -7.07405,11.682267 -10.9,16.640879 -20.04029,37.263409 -22.62692,51.051329 -0.99258,5.2909 0.81315,5.16736 3.35671,-0.22966 4.39434,-9.32404 17.66064,-27.50738 26.81391,-36.75225 15.02674,-15.177125 37.1917,-30.303485 53.15747,-36.277046 5.9067,-2.209981 25.06505,-4.498166 37.8263,-4.517801 9.33236,-0.01436 10.09163,0.936726 11.60029,14.530696 2.14254,19.30557 -0.91701,36.135681 -10.21625,56.198221 l -4.08207,8.80682 h -11.03558 c -19.71088,0 -36.65063,4.14309 -55.69822,13.62256 l -9.70584,4.83033 -5.97475,-3.6763 c -3.28611,-2.02197 -9.49011,-4.86564 -13.78667,-6.31926 -8.46637,-2.86438 -21.64222,-4.82114 -21.59013,-3.20638 0.0177,0.54947 2.76548,2.6525 6.10613,4.67337 7.69031,4.65216 16.89536,12.89639 19.98978,17.90327 l 2.38872,3.86504 -2.77669,4.39857 c -4.87121,7.71649 -11.89039,22.43401 -17.73105,37.17775 -3.11912,7.87366 -7.47305,17.03046 -9.6754,20.34845 -4.88819,7.36437 -17.29758,21.60238 -19.21613,22.04778 -0.76824,0.17834 -4.07693,-4.16825 -7.35264,-9.65909 z"
       id="path1538"
       transform="scale(0.26458333)" />
  </g>
  <g
     inkscape:groupmode="layer"
     id="layer7"
     inkscape:label="Greys">
    <path
       style="fill:#e6e6e6;fill-opacity:1;fill-rule:nonzero;stroke:none;stroke-width:107.373;stroke-miterlimit:4;stroke-dasharray:none;stroke-opacity:1"
       d="m 306.25,530.73792 c -5.9375,-3.17498 -14.39156,-8.50613 -18.78681,-11.84698 -11.87155,-9.02364 -31.3024,-29.52769 -38.61823,-40.75116 -12.80492,-19.64448 -25.70082,-51.152 -27.25813,-66.59757 -0.51731,-5.13069 -0.18382,-9.81555 1.09202,-15.34091 1.95054,-8.44736 6.87591,-18.57453 9.70751,-19.95985 0.9375,-0.45865 7.32955,-3.4797 14.20455,-6.71343 6.875,-3.23374 17.41119,-8.91025 23.41375,-12.61448 6.00256,-3.70423 12.18671,-6.73497 13.74256,-6.73497 1.55584,0 5.73429,0.99964 9.28545,2.22141 18.87763,6.49486 32.56758,18.11641 40.21884,34.14223 10.64702,22.30053 11.27171,46.90177 2.17856,85.79545 -1.46123,6.25 -5.42727,23.25284 -8.81343,37.78409 -4.67304,20.05372 -6.56807,26.41665 -7.86392,26.40467 -0.939,-0.009 -6.56522,-2.6135 -12.50272,-5.7885 z"
       id="path2227"
       transform="scale(0.26458333)" />
    <path
       style="fill:#e6e6e6;fill-opacity:1;fill-rule:nonzero;stroke:none;stroke-width:107.373;stroke-miterlimit:4;stroke-dasharray:none;stroke-opacity:1"
       d="m 308.67735,596.69067 c -3.97746,-5.64756 -7.01529,-10.48476 -6.75074,-10.74931 0.26455,-0.26455 2.4265,-0.88522 4.80436,-1.37927 l 4.32334,-0.89826 -7.84778,-2.52754 c -7.7425,-2.49364 -7.99867,-2.70681 -19.09596,-15.89036 -6.1865,-7.34955 -29.83108,-31.93799 -52.54351,-54.64099 l -41.29534,-41.27817 1.26958,-7.00127 c 0.69826,-3.85069 1.53649,-7.43315 1.86272,-7.96101 0.32624,-0.52786 2.96652,3.17253 5.8673,8.2231 19.33723,33.66824 50.01988,63.65918 78.00141,76.24295 8.96311,4.03086 25.2469,8.56859 34.74066,9.68103 l 6.33156,0.7419 -1.10059,6.99664 c -0.60531,3.84815 -1.13,16.84039 -1.16594,28.87164 -0.0359,12.03125 -0.0888,21.8665 -0.11735,21.85612 -0.0286,-0.0102 -3.30626,-4.63963 -7.28372,-10.2872 z"
       id="path2229"
       transform="scale(0.26458333)" />
    <path
       style="fill:#e6e6e6;fill-opacity:1;fill-rule:nonzero;stroke:none;stroke-width:107.373;stroke-miterlimit:4;stroke-dasharray:none;stroke-opacity:1"
       d="M 131.878,418.0763 C 93.027583,379.19845 77.132658,355.75504 66.880914,322.21217 c -2.754565,-9.01271 -3.093844,-11.93944 -3.147016,-27.14723 -0.0454,-12.98427 0.423313,-18.80531 1.967257,-24.43182 2.857652,-10.41399 13.205519,-30.94416 20.322297,-40.31945 7.176106,-9.45345 22.468848,-25.13008 32.726548,-33.54808 l 7.38636,-6.06163 0.80636,13.57483 c 0.44349,7.46617 1.56432,16.82398 2.49074,20.79516 1.31476,5.63591 1.42385,8.62149 0.4971,13.60565 -0.71012,3.81909 -0.96249,15.74769 -0.62794,29.68079 0.46456,19.34785 1.06173,25.64554 3.524,37.16372 7.50117,35.08947 19.79957,55.12578 41.35928,67.38173 3.84808,2.1875 7.01171,4.4859 7.0303,5.10756 0.0186,0.62166 -3.54638,10.6684 -7.92217,22.32608 -4.37578,11.65768 -9.3362,26.10644 -11.02315,32.10835 -1.68696,6.00191 -3.53057,10.91256 -4.09691,10.91256 -0.56634,0 -12.39953,-11.37784 -26.29597,-25.28409 z"
       id="path2231"
       transform="scale(0.26458333)" />
  </g>
  <g
     inkscape:groupmode="layer"
     id="layer6"
     inkscape:label="Stop"
     style="display:inline">
    <g
       fill-rule="evenodd"
       id="g1554"
       transform="matrix(0.2833763,0,0,0.28409268,99.950703,100.06705)">
      <path
         d="M 211.2,297.2 89.1,297.1 2.76,210.7 2.821,88.7 89.201,2.35 l 122.1,0.058 86.3,86.37 -0.1,122.1 z"
         inkscape:transform-center-x="-6.3569551"
         inkscape:transform-center-y="-9.6240104"
         inkscape:connector-curvature="0"
         stroke="#cc0000"
         stroke-linecap="round"
         stroke-width="5.171"
         sodipodi:nodetypes="ccccccccc"
         fill="#ffffff"
         id="path1550" />
      <path
         d="m 203.9,279.8 -107.7,-0.0496 -76.1,-76.17 0.04961,-107.7 76.17,-76.1 107.7,0.04959 76.1,76.17 -0.0496,107.7 z"
         inkscape:transform-center-x="-5.6060084"
         inkscape:transform-center-y="-8.4871386"
         inkscape:connector-curvature="0"
         sodipodi:nodetypes="ccccccccc"
         fill="#cc0000"
         id="path1552" />
    </g>
    <g
       fill-rule="evenodd"
       fill="#ffffff"
       transform="matrix(0.15883242,0,0,0.15923395,99.297243,100.42672)"
       id="g1570">
      <path
         d="m 276.4,245.1 c 52.25,0 82.61,64.34 82.61,116.6 0,52.25 -52.36,80.61 -104.6,80.61 -52.25,0 -92.61,-42.36 -92.61,-94.61 0,-52.25 42.36,-102.6 94.61,-102.6"
         sodipodi:nodetypes="csssc"
         inkscape:connector-curvature="0"
         id="path1556" />
      <g
         stroke="#ffffff"
         stroke-linecap="round"
         stroke-width="48"
         id="g1568">
        <path
           d="M 185.8,158 V 348"
           sodipodi:nodetypes="cc"
           inkscape:connector-curvature="0"
           id="path1558" />
        <path
           d="m 236.3,124.1 v 190"
           sodipodi:nodetypes="cc"
           inkscape:connector-curvature="0"
           id="path1560" />
        <path
           d="m 286.9,98.2 v 190"
           sodipodi:nodetypes="cc"
           inkscape:connector-curvature="0"
           id="path1562" />
        <path
           d="m 337.4,129.5 v 190"
           sodipodi:nodetypes="cc"
           inkscape:connector-curvature="0"
           id="path1564" />
        <path
           d="m 422.9,269.3 -88.67,107.9 -9.037,11"
           sodipodi:nodetypes="ccc"
           inkscape:connector-curvature="0"
           id="path1566" />
      </g>
    </g>
  </g>
</svg>
